<mxfile host="app.diagrams.net" modified="2023-12-21T20:30:13.373Z" agent="Mozilla/5.0 (Windows NT 10.0; Win64; x64; rv:120.0) Gecko/20100101 Firefox/120.0" etag="u1qtS1fVEiPZ-DMS-J-h" version="22.1.11" type="device">
  <diagram name="Page-1" id="woVpl8wI9iAEmGtXwWa2">
    <mxGraphModel dx="600" dy="358" grid="1" gridSize="10" guides="1" tooltips="1" connect="1" arrows="1" fold="1" page="1" pageScale="1" pageWidth="850" pageHeight="1100" math="1" shadow="0">
      <root>
        <mxCell id="0" />
        <mxCell id="1" parent="0" />
        <mxCell id="PwrsmwbkxkLAnroD9hUy-21" value="" style="ellipse;whiteSpace=wrap;html=1;strokeWidth=1.5;" vertex="1" parent="1">
          <mxGeometry x="245" y="255" width="10" height="10" as="geometry" />
        </mxCell>
        <mxCell id="PwrsmwbkxkLAnroD9hUy-1" value="" style="rounded=0;whiteSpace=wrap;html=1;strokeWidth=1.5;" vertex="1" parent="1">
          <mxGeometry x="190" y="240" width="40" height="40" as="geometry" />
        </mxCell>
        <mxCell id="PwrsmwbkxkLAnroD9hUy-2" value="" style="rounded=0;whiteSpace=wrap;html=1;strokeWidth=1.5;" vertex="1" parent="1">
          <mxGeometry x="370" y="320" width="80" height="40" as="geometry" />
        </mxCell>
        <mxCell id="PwrsmwbkxkLAnroD9hUy-4" value="" style="rounded=0;whiteSpace=wrap;html=1;strokeWidth=1.5;" vertex="1" parent="1">
          <mxGeometry x="450" y="240" width="40" height="40" as="geometry" />
        </mxCell>
        <mxCell id="PwrsmwbkxkLAnroD9hUy-5" value="" style="rounded=0;whiteSpace=wrap;html=1;strokeWidth=1.5;" vertex="1" parent="1">
          <mxGeometry x="280" y="320" width="40" height="40" as="geometry" />
        </mxCell>
        <mxCell id="PwrsmwbkxkLAnroD9hUy-6" value="" style="rounded=0;whiteSpace=wrap;html=1;strokeWidth=1.5;" vertex="1" parent="1">
          <mxGeometry x="310" y="240" width="90" height="40" as="geometry" />
        </mxCell>
        <mxCell id="PwrsmwbkxkLAnroD9hUy-7" value="" style="endArrow=classic;html=1;rounded=0;entryX=0;entryY=0.5;entryDx=0;entryDy=0;strokeWidth=1.5;" edge="1" parent="1" target="PwrsmwbkxkLAnroD9hUy-1">
          <mxGeometry width="50" height="50" relative="1" as="geometry">
            <mxPoint x="120" y="260" as="sourcePoint" />
            <mxPoint x="450" y="300" as="targetPoint" />
          </mxGeometry>
        </mxCell>
        <mxCell id="PwrsmwbkxkLAnroD9hUy-8" value="" style="endArrow=classic;html=1;rounded=0;exitX=1;exitY=0.5;exitDx=0;exitDy=0;strokeWidth=1.5;" edge="1" parent="1" source="PwrsmwbkxkLAnroD9hUy-21">
          <mxGeometry width="50" height="50" relative="1" as="geometry">
            <mxPoint x="130" y="270" as="sourcePoint" />
            <mxPoint x="310" y="260" as="targetPoint" />
            <Array as="points">
              <mxPoint x="290" y="260" />
            </Array>
          </mxGeometry>
        </mxCell>
        <mxCell id="PwrsmwbkxkLAnroD9hUy-9" value="" style="endArrow=classic;html=1;rounded=0;entryX=0;entryY=0.5;entryDx=0;entryDy=0;exitX=1;exitY=0.5;exitDx=0;exitDy=0;strokeWidth=1.5;" edge="1" parent="1" source="PwrsmwbkxkLAnroD9hUy-6" target="PwrsmwbkxkLAnroD9hUy-4">
          <mxGeometry width="50" height="50" relative="1" as="geometry">
            <mxPoint x="250" y="270" as="sourcePoint" />
            <mxPoint x="330" y="270" as="targetPoint" />
            <Array as="points" />
          </mxGeometry>
        </mxCell>
        <mxCell id="PwrsmwbkxkLAnroD9hUy-10" value="" style="endArrow=classic;html=1;rounded=0;exitX=1;exitY=0.5;exitDx=0;exitDy=0;strokeWidth=1.5;" edge="1" parent="1" source="PwrsmwbkxkLAnroD9hUy-4">
          <mxGeometry width="50" height="50" relative="1" as="geometry">
            <mxPoint x="400" y="350" as="sourcePoint" />
            <mxPoint x="560" y="260" as="targetPoint" />
          </mxGeometry>
        </mxCell>
        <mxCell id="PwrsmwbkxkLAnroD9hUy-11" value="" style="endArrow=classic;html=1;rounded=0;entryX=1;entryY=0.5;entryDx=0;entryDy=0;strokeWidth=1.5;" edge="1" parent="1" target="PwrsmwbkxkLAnroD9hUy-2">
          <mxGeometry width="50" height="50" relative="1" as="geometry">
            <mxPoint x="520" y="340" as="sourcePoint" />
            <mxPoint x="450" y="300" as="targetPoint" />
          </mxGeometry>
        </mxCell>
        <mxCell id="PwrsmwbkxkLAnroD9hUy-12" value="" style="endArrow=none;html=1;rounded=0;strokeWidth=1.5;" edge="1" parent="1">
          <mxGeometry width="50" height="50" relative="1" as="geometry">
            <mxPoint x="520" y="260" as="sourcePoint" />
            <mxPoint x="520" y="340" as="targetPoint" />
          </mxGeometry>
        </mxCell>
        <mxCell id="PwrsmwbkxkLAnroD9hUy-13" value="&lt;b&gt;&lt;font style=&quot;font-size: 14px;&quot;&gt;Estimator&lt;/font&gt;&lt;/b&gt;" style="text;html=1;strokeColor=none;fillColor=none;align=center;verticalAlign=middle;whiteSpace=wrap;rounded=0;strokeWidth=1.5;" vertex="1" parent="1">
          <mxGeometry x="380" y="320" width="60" height="35" as="geometry" />
        </mxCell>
        <mxCell id="PwrsmwbkxkLAnroD9hUy-14" value="" style="endArrow=classic;html=1;rounded=0;strokeWidth=1.5;" edge="1" parent="1">
          <mxGeometry width="50" height="50" relative="1" as="geometry">
            <mxPoint x="280" y="300" as="sourcePoint" />
            <mxPoint x="410" y="300" as="targetPoint" />
          </mxGeometry>
        </mxCell>
        <mxCell id="PwrsmwbkxkLAnroD9hUy-15" value="" style="endArrow=none;html=1;rounded=0;entryX=0.5;entryY=0;entryDx=0;entryDy=0;strokeWidth=1.5;" edge="1" parent="1" target="PwrsmwbkxkLAnroD9hUy-2">
          <mxGeometry width="50" height="50" relative="1" as="geometry">
            <mxPoint x="410" y="300" as="sourcePoint" />
            <mxPoint x="450" y="300" as="targetPoint" />
          </mxGeometry>
        </mxCell>
        <mxCell id="PwrsmwbkxkLAnroD9hUy-16" value="" style="endArrow=none;html=1;rounded=0;strokeWidth=1.5;" edge="1" parent="1">
          <mxGeometry width="50" height="50" relative="1" as="geometry">
            <mxPoint x="280" y="300" as="sourcePoint" />
            <mxPoint x="280" y="260" as="targetPoint" />
          </mxGeometry>
        </mxCell>
        <mxCell id="PwrsmwbkxkLAnroD9hUy-18" value="" style="endArrow=classic;html=1;rounded=0;exitX=0;exitY=0.5;exitDx=0;exitDy=0;entryX=1;entryY=0.5;entryDx=0;entryDy=0;strokeWidth=1.5;" edge="1" parent="1" source="PwrsmwbkxkLAnroD9hUy-2" target="PwrsmwbkxkLAnroD9hUy-5">
          <mxGeometry width="50" height="50" relative="1" as="geometry">
            <mxPoint x="400" y="350" as="sourcePoint" />
            <mxPoint x="450" y="300" as="targetPoint" />
          </mxGeometry>
        </mxCell>
        <mxCell id="PwrsmwbkxkLAnroD9hUy-19" value="" style="endArrow=classic;html=1;rounded=0;strokeWidth=1.5;" edge="1" parent="1">
          <mxGeometry width="50" height="50" relative="1" as="geometry">
            <mxPoint x="250" y="340" as="sourcePoint" />
            <mxPoint x="250" y="265" as="targetPoint" />
          </mxGeometry>
        </mxCell>
        <mxCell id="PwrsmwbkxkLAnroD9hUy-20" value="" style="endArrow=none;html=1;rounded=0;entryX=0;entryY=0.5;entryDx=0;entryDy=0;strokeWidth=1.5;" edge="1" parent="1" target="PwrsmwbkxkLAnroD9hUy-5">
          <mxGeometry width="50" height="50" relative="1" as="geometry">
            <mxPoint x="250" y="340" as="sourcePoint" />
            <mxPoint x="450" y="300" as="targetPoint" />
          </mxGeometry>
        </mxCell>
        <mxCell id="PwrsmwbkxkLAnroD9hUy-23" value="" style="endArrow=classic;html=1;rounded=0;entryX=0;entryY=0.5;entryDx=0;entryDy=0;exitX=1;exitY=0.5;exitDx=0;exitDy=0;strokeWidth=1.5;" edge="1" parent="1" source="PwrsmwbkxkLAnroD9hUy-1" target="PwrsmwbkxkLAnroD9hUy-21">
          <mxGeometry width="50" height="50" relative="1" as="geometry">
            <mxPoint x="230" y="260" as="sourcePoint" />
            <mxPoint x="320" y="260" as="targetPoint" />
            <Array as="points" />
          </mxGeometry>
        </mxCell>
        <mxCell id="PwrsmwbkxkLAnroD9hUy-25" value="&lt;font style=&quot;font-size: 14px;&quot;&gt;-&lt;b&gt;&lt;font style=&quot;font-size: 14px;&quot;&gt;K&lt;/font&gt;&lt;/b&gt;&lt;/font&gt;" style="text;html=1;strokeColor=none;fillColor=none;align=center;verticalAlign=middle;whiteSpace=wrap;rounded=0;strokeWidth=1.5;" vertex="1" parent="1">
          <mxGeometry x="270" y="325" width="60" height="30" as="geometry" />
        </mxCell>
        <mxCell id="PwrsmwbkxkLAnroD9hUy-26" value="+" style="text;html=1;strokeColor=none;fillColor=none;align=center;verticalAlign=middle;whiteSpace=wrap;rounded=0;strokeWidth=1.5;" vertex="1" parent="1">
          <mxGeometry x="230" y="255" width="60" height="30" as="geometry" />
        </mxCell>
        <mxCell id="PwrsmwbkxkLAnroD9hUy-27" value="y(t)" style="text;html=1;strokeColor=none;fillColor=none;align=center;verticalAlign=middle;whiteSpace=wrap;rounded=0;strokeWidth=1.5;" vertex="1" parent="1">
          <mxGeometry x="500" y="235" width="60" height="30" as="geometry" />
        </mxCell>
        <mxCell id="PwrsmwbkxkLAnroD9hUy-29" value="C" style="text;html=1;strokeColor=none;fillColor=none;align=center;verticalAlign=middle;whiteSpace=wrap;rounded=0;strokeWidth=1.5;fontSize=14;" vertex="1" parent="1">
          <mxGeometry x="440" y="245" width="60" height="30" as="geometry" />
        </mxCell>
        <mxCell id="PwrsmwbkxkLAnroD9hUy-30" value="r(t)" style="text;html=1;strokeColor=none;fillColor=none;align=center;verticalAlign=middle;whiteSpace=wrap;rounded=0;strokeWidth=1.5;" vertex="1" parent="1">
          <mxGeometry x="100" y="235" width="60" height="30" as="geometry" />
        </mxCell>
        <mxCell id="PwrsmwbkxkLAnroD9hUy-34" value="`\dot{x}=Ax+Bu`" style="text;html=1;strokeColor=none;fillColor=none;align=center;verticalAlign=middle;whiteSpace=wrap;rounded=0;" vertex="1" parent="1">
          <mxGeometry x="325" y="245" width="60" height="30" as="geometry" />
        </mxCell>
        <mxCell id="PwrsmwbkxkLAnroD9hUy-35" value="`N_{ff}`" style="text;html=1;strokeColor=none;fillColor=none;align=center;verticalAlign=middle;whiteSpace=wrap;rounded=0;" vertex="1" parent="1">
          <mxGeometry x="180" y="245" width="60" height="30" as="geometry" />
        </mxCell>
        <mxCell id="PwrsmwbkxkLAnroD9hUy-36" value="`\hat{x}(t)`" style="text;html=1;strokeColor=none;fillColor=none;align=center;verticalAlign=middle;whiteSpace=wrap;rounded=0;" vertex="1" parent="1">
          <mxGeometry x="320" y="310" width="60" height="30" as="geometry" />
        </mxCell>
        <mxCell id="PwrsmwbkxkLAnroD9hUy-37" value="`u(t)`" style="text;whiteSpace=wrap;html=1;" vertex="1" parent="1">
          <mxGeometry x="255" y="235" width="90" height="40" as="geometry" />
        </mxCell>
        <mxCell id="PwrsmwbkxkLAnroD9hUy-38" value="x(t)" style="text;html=1;strokeColor=none;fillColor=none;align=center;verticalAlign=middle;whiteSpace=wrap;rounded=0;strokeWidth=1.5;" vertex="1" parent="1">
          <mxGeometry x="390" y="235" width="60" height="30" as="geometry" />
        </mxCell>
      </root>
    </mxGraphModel>
  </diagram>
</mxfile>
